<svg xmlns="http://www.w3.org/2000/svg" width="512" height="512" viewBox="0 0 512 512" version="1.1"><path d="M 173.500 99.459 C 170.750 100.258, 168.211 100.932, 167.858 100.956 C 167.505 100.980, 164.943 103.044, 162.164 105.542 C 158.658 108.695, 156.406 111.831, 154.806 115.792 L 152.500 121.500 152.217 251.500 C 152.026 339.014, 152.277 383.730, 152.987 388.324 C 155.714 405.976, 165.406 414, 184 414 C 199.308 414, 208.379 408.538, 213.063 396.500 C 215.348 390.626, 215.410 389.543, 216.024 345 C 216.659 298.903, 216.803 297.227, 220.823 289.347 C 226.537 278.147, 242.163 272.166, 262.890 273.247 C 277.924 274.031, 286.054 278.171, 291.227 287.676 C 296.642 297.624, 296.997 301.012, 297.031 342.960 C 297.048 364.157, 297.484 384.754, 298.001 388.732 C 299.502 400.287, 304.102 407.239, 313 411.397 C 316.820 413.182, 319.389 413.500, 330 413.500 C 344.146 413.500, 347.958 412.228, 353.818 405.554 C 359.930 398.593, 360.165 396.195, 359.776 344.777 C 359.433 299.490, 359.376 298.350, 357.100 291.500 C 350.753 272.393, 338.994 258.442, 321.628 249.414 C 317.707 247.376, 314.324 245.560, 314.109 245.380 C 313.894 245.199, 316.421 242.448, 319.724 239.266 C 340.144 219.593, 350.228 187.142, 350.416 140.500 C 350.496 120.401, 350.397 119.273, 348.108 114.206 C 343.216 103.380, 333.772 98.469, 318 98.547 C 303.147 98.622, 295.985 102.690, 291.338 113.692 C 290.152 116.500, 289.517 122.884, 288.921 138 C 287.389 176.859, 283.205 193.559, 272.042 205.363 C 265.817 211.945, 258.756 215.764, 245.002 219.988 C 232.789 223.739, 228.433 225.782, 221.310 231.099 L 216.121 234.974 215.764 178.737 C 215.351 113.554, 215.550 115.136, 206.656 106.486 C 203.739 103.650, 199.763 100.914, 197.500 100.186 C 191.196 98.159, 179.223 97.796, 173.500 99.459" stroke="none" fill="#fafbfb" fill-rule="evenodd"/><path d="M 37.688 1.502 C 20.428 6.246, 6.078 20.753, 1.453 38.131 C -0.692 46.190, -0.692 465.810, 1.453 473.869 C 6.142 491.486, 20.514 505.858, 38.131 510.547 C 46.190 512.692, 465.810 512.692, 473.869 510.547 C 491.313 505.904, 507.636 489.518, 510.536 473.739 C 510.916 471.670, 511.626 469.731, 512.113 469.430 C 512.624 469.114, 513 378.229, 513 254.882 C 513 130.040, 512.629 41.111, 512.110 41.432 C 511.620 41.735, 510.910 40.299, 510.532 38.241 C 507.636 22.482, 491.303 6.093, 473.869 1.453 C 466.164 -0.598, 45.154 -0.551, 37.688 1.502 M 0.491 256 C 0.491 373.975, 0.607 422.238, 0.750 363.250 C 0.892 304.263, 0.892 207.738, 0.750 148.750 C 0.607 89.763, 0.491 138.025, 0.491 256 M 173.500 99.459 C 170.750 100.258, 168.211 100.932, 167.858 100.956 C 167.505 100.980, 164.943 103.044, 162.164 105.542 C 158.658 108.695, 156.406 111.831, 154.806 115.792 L 152.500 121.500 152.217 251.500 C 152.026 339.014, 152.277 383.730, 152.987 388.324 C 155.714 405.976, 165.406 414, 184 414 C 199.308 414, 208.379 408.538, 213.063 396.500 C 215.348 390.626, 215.410 389.543, 216.024 345 C 216.659 298.903, 216.803 297.227, 220.823 289.347 C 226.537 278.147, 242.163 272.166, 262.890 273.247 C 277.924 274.031, 286.054 278.171, 291.227 287.676 C 296.642 297.624, 296.997 301.012, 297.031 342.960 C 297.048 364.157, 297.484 384.754, 298.001 388.732 C 299.502 400.287, 304.102 407.239, 313 411.397 C 316.820 413.182, 319.389 413.500, 330 413.500 C 344.146 413.500, 347.958 412.228, 353.818 405.554 C 359.930 398.593, 360.165 396.195, 359.776 344.777 C 359.433 299.490, 359.376 298.350, 357.100 291.500 C 350.753 272.393, 338.994 258.442, 321.628 249.414 C 317.707 247.376, 314.324 245.560, 314.109 245.380 C 313.894 245.199, 316.421 242.448, 319.724 239.266 C 340.144 219.593, 350.228 187.142, 350.416 140.500 C 350.496 120.401, 350.397 119.273, 348.108 114.206 C 343.216 103.380, 333.772 98.469, 318 98.547 C 303.147 98.622, 295.985 102.690, 291.338 113.692 C 290.152 116.500, 289.517 122.884, 288.921 138 C 287.389 176.859, 283.205 193.559, 272.042 205.363 C 265.817 211.945, 258.756 215.764, 245.002 219.988 C 232.789 223.739, 228.433 225.782, 221.310 231.099 L 216.121 234.974 215.764 178.737 C 215.351 113.554, 215.550 115.136, 206.656 106.486 C 203.739 103.650, 199.763 100.914, 197.500 100.186 C 191.196 98.159, 179.223 97.796, 173.500 99.459" stroke="none" fill="#0484cc" fill-rule="evenodd"/></svg>